<mxfile host="Electron" agent="Mozilla/5.0 (Windows NT 10.0; Win64; x64) AppleWebKit/537.36 (KHTML, like Gecko) draw.io/24.7.17 Chrome/128.0.6613.36 Electron/32.0.1 Safari/537.36" version="24.7.17">
  <diagram id="C5RBs43oDa-KdzZeNtuy" name="Page-1">
    <mxGraphModel dx="1434" dy="836" grid="1" gridSize="10" guides="1" tooltips="1" connect="1" arrows="1" fold="1" page="1" pageScale="1" pageWidth="827" pageHeight="1169" math="0" shadow="0">
      <root>
        <mxCell id="WIyWlLk6GJQsqaUBKTNV-0" />
        <mxCell id="WIyWlLk6GJQsqaUBKTNV-1" parent="WIyWlLk6GJQsqaUBKTNV-0" />
        <mxCell id="vJkXviwzlsPPheViiNkc-2" value="" style="edgeStyle=orthogonalEdgeStyle;rounded=0;orthogonalLoop=1;jettySize=auto;html=1;" edge="1" parent="WIyWlLk6GJQsqaUBKTNV-1" source="vJkXviwzlsPPheViiNkc-0" target="vJkXviwzlsPPheViiNkc-1">
          <mxGeometry relative="1" as="geometry" />
        </mxCell>
        <mxCell id="vJkXviwzlsPPheViiNkc-0" value="Bắt đầu" style="ellipse;whiteSpace=wrap;html=1;" vertex="1" parent="WIyWlLk6GJQsqaUBKTNV-1">
          <mxGeometry x="350" y="80" width="120" height="80" as="geometry" />
        </mxCell>
        <mxCell id="vJkXviwzlsPPheViiNkc-4" value="" style="edgeStyle=orthogonalEdgeStyle;rounded=0;orthogonalLoop=1;jettySize=auto;html=1;" edge="1" parent="WIyWlLk6GJQsqaUBKTNV-1" source="vJkXviwzlsPPheViiNkc-1" target="vJkXviwzlsPPheViiNkc-3">
          <mxGeometry relative="1" as="geometry" />
        </mxCell>
        <mxCell id="vJkXviwzlsPPheViiNkc-1" value="nhập điểm" style="shape=parallelogram;perimeter=parallelogramPerimeter;whiteSpace=wrap;html=1;fixedSize=1;" vertex="1" parent="WIyWlLk6GJQsqaUBKTNV-1">
          <mxGeometry x="350" y="250" width="120" height="60" as="geometry" />
        </mxCell>
        <mxCell id="vJkXviwzlsPPheViiNkc-6" value="đúng" style="edgeStyle=orthogonalEdgeStyle;rounded=0;orthogonalLoop=1;jettySize=auto;html=1;" edge="1" parent="WIyWlLk6GJQsqaUBKTNV-1" source="vJkXviwzlsPPheViiNkc-3" target="vJkXviwzlsPPheViiNkc-5">
          <mxGeometry relative="1" as="geometry" />
        </mxCell>
        <mxCell id="vJkXviwzlsPPheViiNkc-8" value="sai" style="edgeStyle=orthogonalEdgeStyle;rounded=0;orthogonalLoop=1;jettySize=auto;html=1;" edge="1" parent="WIyWlLk6GJQsqaUBKTNV-1" source="vJkXviwzlsPPheViiNkc-3">
          <mxGeometry relative="1" as="geometry">
            <mxPoint x="300" y="420" as="targetPoint" />
          </mxGeometry>
        </mxCell>
        <mxCell id="vJkXviwzlsPPheViiNkc-3" value="điểm &amp;lt; 4" style="rhombus;whiteSpace=wrap;html=1;" vertex="1" parent="WIyWlLk6GJQsqaUBKTNV-1">
          <mxGeometry x="370" y="380" width="80" height="80" as="geometry" />
        </mxCell>
        <mxCell id="vJkXviwzlsPPheViiNkc-5" value="không đạt" style="shape=parallelogram;perimeter=parallelogramPerimeter;whiteSpace=wrap;html=1;fixedSize=1;" vertex="1" parent="WIyWlLk6GJQsqaUBKTNV-1">
          <mxGeometry x="510" y="390" width="120" height="60" as="geometry" />
        </mxCell>
        <mxCell id="vJkXviwzlsPPheViiNkc-20" value="đúng" style="edgeStyle=orthogonalEdgeStyle;rounded=0;orthogonalLoop=1;jettySize=auto;html=1;" edge="1" parent="WIyWlLk6GJQsqaUBKTNV-1" source="vJkXviwzlsPPheViiNkc-18" target="vJkXviwzlsPPheViiNkc-19">
          <mxGeometry relative="1" as="geometry" />
        </mxCell>
        <mxCell id="vJkXviwzlsPPheViiNkc-22" value="sai" style="edgeStyle=orthogonalEdgeStyle;rounded=0;orthogonalLoop=1;jettySize=auto;html=1;" edge="1" parent="WIyWlLk6GJQsqaUBKTNV-1" source="vJkXviwzlsPPheViiNkc-18" target="vJkXviwzlsPPheViiNkc-21">
          <mxGeometry relative="1" as="geometry" />
        </mxCell>
        <mxCell id="vJkXviwzlsPPheViiNkc-18" value="điểm &amp;lt;=6" style="rhombus;whiteSpace=wrap;html=1;" vertex="1" parent="WIyWlLk6GJQsqaUBKTNV-1">
          <mxGeometry x="220" y="380" width="80" height="80" as="geometry" />
        </mxCell>
        <mxCell id="vJkXviwzlsPPheViiNkc-37" style="edgeStyle=orthogonalEdgeStyle;rounded=0;orthogonalLoop=1;jettySize=auto;html=1;entryX=0;entryY=0.5;entryDx=0;entryDy=0;exitX=0.5;exitY=1;exitDx=0;exitDy=0;" edge="1" parent="WIyWlLk6GJQsqaUBKTNV-1" source="vJkXviwzlsPPheViiNkc-19" target="vJkXviwzlsPPheViiNkc-31">
          <mxGeometry relative="1" as="geometry" />
        </mxCell>
        <mxCell id="vJkXviwzlsPPheViiNkc-19" value="trung bình" style="shape=parallelogram;perimeter=parallelogramPerimeter;whiteSpace=wrap;html=1;fixedSize=1;" vertex="1" parent="WIyWlLk6GJQsqaUBKTNV-1">
          <mxGeometry x="60" y="390" width="120" height="60" as="geometry" />
        </mxCell>
        <mxCell id="vJkXviwzlsPPheViiNkc-24" value="sai" style="edgeStyle=orthogonalEdgeStyle;rounded=0;orthogonalLoop=1;jettySize=auto;html=1;" edge="1" parent="WIyWlLk6GJQsqaUBKTNV-1" source="vJkXviwzlsPPheViiNkc-21" target="vJkXviwzlsPPheViiNkc-23">
          <mxGeometry relative="1" as="geometry" />
        </mxCell>
        <mxCell id="vJkXviwzlsPPheViiNkc-26" value="đúng" style="edgeStyle=orthogonalEdgeStyle;rounded=0;orthogonalLoop=1;jettySize=auto;html=1;" edge="1" parent="WIyWlLk6GJQsqaUBKTNV-1" source="vJkXviwzlsPPheViiNkc-21" target="vJkXviwzlsPPheViiNkc-25">
          <mxGeometry relative="1" as="geometry" />
        </mxCell>
        <mxCell id="vJkXviwzlsPPheViiNkc-21" value="điểm&amp;lt;=8" style="rhombus;whiteSpace=wrap;html=1;" vertex="1" parent="WIyWlLk6GJQsqaUBKTNV-1">
          <mxGeometry x="220" y="520" width="80" height="80" as="geometry" />
        </mxCell>
        <mxCell id="vJkXviwzlsPPheViiNkc-28" value="đúng" style="edgeStyle=orthogonalEdgeStyle;rounded=0;orthogonalLoop=1;jettySize=auto;html=1;" edge="1" parent="WIyWlLk6GJQsqaUBKTNV-1" source="vJkXviwzlsPPheViiNkc-23" target="vJkXviwzlsPPheViiNkc-27">
          <mxGeometry relative="1" as="geometry" />
        </mxCell>
        <mxCell id="vJkXviwzlsPPheViiNkc-30" value="" style="edgeStyle=orthogonalEdgeStyle;rounded=0;orthogonalLoop=1;jettySize=auto;html=1;" edge="1" parent="WIyWlLk6GJQsqaUBKTNV-1" source="vJkXviwzlsPPheViiNkc-23" target="vJkXviwzlsPPheViiNkc-29">
          <mxGeometry relative="1" as="geometry" />
        </mxCell>
        <mxCell id="vJkXviwzlsPPheViiNkc-23" value="điểm&amp;lt;=9" style="rhombus;whiteSpace=wrap;html=1;" vertex="1" parent="WIyWlLk6GJQsqaUBKTNV-1">
          <mxGeometry x="220" y="640" width="80" height="80" as="geometry" />
        </mxCell>
        <mxCell id="vJkXviwzlsPPheViiNkc-34" style="edgeStyle=orthogonalEdgeStyle;rounded=0;orthogonalLoop=1;jettySize=auto;html=1;entryX=1;entryY=0.5;entryDx=0;entryDy=0;exitX=1;exitY=0.5;exitDx=0;exitDy=0;" edge="1" parent="WIyWlLk6GJQsqaUBKTNV-1" source="vJkXviwzlsPPheViiNkc-25" target="vJkXviwzlsPPheViiNkc-31">
          <mxGeometry relative="1" as="geometry">
            <mxPoint x="470" y="600" as="sourcePoint" />
            <Array as="points">
              <mxPoint x="500" y="560" />
              <mxPoint x="500" y="930" />
            </Array>
          </mxGeometry>
        </mxCell>
        <mxCell id="vJkXviwzlsPPheViiNkc-25" value="khá" style="shape=parallelogram;perimeter=parallelogramPerimeter;whiteSpace=wrap;html=1;fixedSize=1;" vertex="1" parent="WIyWlLk6GJQsqaUBKTNV-1">
          <mxGeometry x="360" y="530" width="120" height="60" as="geometry" />
        </mxCell>
        <mxCell id="vJkXviwzlsPPheViiNkc-35" style="edgeStyle=orthogonalEdgeStyle;rounded=0;orthogonalLoop=1;jettySize=auto;html=1;entryX=0.5;entryY=0;entryDx=0;entryDy=0;" edge="1" parent="WIyWlLk6GJQsqaUBKTNV-1" source="vJkXviwzlsPPheViiNkc-27" target="vJkXviwzlsPPheViiNkc-31">
          <mxGeometry relative="1" as="geometry" />
        </mxCell>
        <mxCell id="vJkXviwzlsPPheViiNkc-27" value="giỏi" style="shape=parallelogram;perimeter=parallelogramPerimeter;whiteSpace=wrap;html=1;fixedSize=1;" vertex="1" parent="WIyWlLk6GJQsqaUBKTNV-1">
          <mxGeometry x="360" y="650" width="120" height="60" as="geometry" />
        </mxCell>
        <mxCell id="vJkXviwzlsPPheViiNkc-36" style="edgeStyle=orthogonalEdgeStyle;rounded=0;orthogonalLoop=1;jettySize=auto;html=1;entryX=0;entryY=0.5;entryDx=0;entryDy=0;" edge="1" parent="WIyWlLk6GJQsqaUBKTNV-1" source="vJkXviwzlsPPheViiNkc-29" target="vJkXviwzlsPPheViiNkc-31">
          <mxGeometry relative="1" as="geometry" />
        </mxCell>
        <mxCell id="vJkXviwzlsPPheViiNkc-29" value="xuất xác" style="shape=parallelogram;perimeter=parallelogramPerimeter;whiteSpace=wrap;html=1;fixedSize=1;" vertex="1" parent="WIyWlLk6GJQsqaUBKTNV-1">
          <mxGeometry x="200" y="760" width="120" height="60" as="geometry" />
        </mxCell>
        <mxCell id="vJkXviwzlsPPheViiNkc-31" value="kết thúc" style="ellipse;whiteSpace=wrap;html=1;" vertex="1" parent="WIyWlLk6GJQsqaUBKTNV-1">
          <mxGeometry x="360" y="890" width="120" height="80" as="geometry" />
        </mxCell>
        <mxCell id="vJkXviwzlsPPheViiNkc-33" style="edgeStyle=orthogonalEdgeStyle;rounded=0;orthogonalLoop=1;jettySize=auto;html=1;exitX=0.5;exitY=1;exitDx=0;exitDy=0;entryX=1;entryY=0.5;entryDx=0;entryDy=0;" edge="1" parent="WIyWlLk6GJQsqaUBKTNV-1" source="vJkXviwzlsPPheViiNkc-5" target="vJkXviwzlsPPheViiNkc-31">
          <mxGeometry relative="1" as="geometry">
            <mxPoint x="557" y="500" as="sourcePoint" />
            <mxPoint x="520" y="930" as="targetPoint" />
          </mxGeometry>
        </mxCell>
      </root>
    </mxGraphModel>
  </diagram>
</mxfile>
